<svg id="Camada_1" data-name="Camada 1" xmlns="http://www.w3.org/2000/svg" xmlns:xlink="http://www.w3.org/1999/xlink" viewBox="0 0 833 797.78"><defs><style>.cls-1,.cls-2{fill:none;}.cls-2{stroke:#000;stroke-width:4px;}.cls-3{clip-path:url(#clip-path);}.cls-4b{fill:#fd0001;}</style><clipPath id="clip-path" transform="translate(-5 -9.56)"><rect class="cls-1" x="5" y="9.39" width="833" height="797.9"/></clipPath></defs><path class="cls-2" d="M466.68,435.58l-3-56.92" transform="translate(-5 -9.56)"/><g class="cls-3"><path class="cls-4b" d="M290.33,379.66c3.33,2.59,6.67,5.46,10,8.06C297,385.23,294.67,386.61,290.33,379.66ZM172.6,243.23h0l4.67,7.76C175.1,247.39,173.93,245.45,172.6,243.23ZM571.32,268.7l-9,12C565.12,276.67,563.71,274.42,571.32,268.7ZM706.39,110.19l-6.92,7.46,6.91-7.46Zm-4.88,37.94c-1.19,1.38-2.31,2.81-3.39,4.32A15,15,0,0,1,701.51,148.13Zm32.19-32.88a63.56,63.56,0,0,1-9.87,12C727.3,123.23,730.59,119.19,733.7,115.25Zm-42.23,53c-.88.86-1.61,1.69-2.36,2.52.57-1,1.12-2.06,1.68-3.09A1.21,1.21,0,0,0,691.47,168.21Zm1.14-3.91c0-.05.06-.11.08-.16a10.67,10.67,0,0,0,3.1-4.58C696.13,160.81,694.21,162.61,692.61,164.3ZM221.23,265.87c.55.89,1.12,1.65,1.69,2.41l-2.39-1.88A1.53,1.53,0,0,0,221.23,265.87ZM218,264.41l-.13-.11a7.82,7.82,0,0,0-3.32-3.33C215.76,260.84,216.88,262.78,218,264.41Zm-31.54-44.27a52.59,52.59,0,0,1,7.32,11C191.33,227.37,188.83,223.69,186.43,220.14ZM208.73,258a10.7,10.7,0,0,1-3-3.67A41.78,41.78,0,0,0,208.73,258ZM808,693.66a498.74,498.74,0,0,1-52.45-24.79c2.28-4.72-4.38-5.37-9.62-5.24-8.9-4.16-17.47-8.43-26.23-13,.37-4.2-3.47-7.33-1.09-9.16-2.69-1.68-5.56-1.88-8.34-2.31,1.32-6.15-8.43-5.58-12.87-8.36-2.56-2-5.2-3.71-7.74-5.67a26.7,26.7,0,0,0-1.54-3c-2.31-2.27-4.72-4.43-7.11-6.58-4.24-1.44-8.22-2.84-12.36-4.52-2.41-10.29-15.38-6.91-23.34-13-1.37-2.11,1.11-3,1.55-4.61-8.2-6-18-6.71-24.66-13.93-8.47-2-15.6-9.21-23.31-16.07l-5.69,2.75-4.47-3.44c.81-2.82-.69-4.71.65-5.4l-7.91-6.2c-2.72-3.65-5.4-10-9.81-10.34-4.77,1.42-8.58-7.25-13.86-5.3l-2.29-1.91c-1.07-7.67-13.77-11.34-13.78-18.77-1.27-2.12-7.7-10.82-8.58-5.13-9.46-6-14.21-11.76-23.07-19.27-2.92,1.29-6.6-3.91-9.23-7.16-6.71-4.93-15.67-11.9-21.25-20.9,3.11-3.23,7.08-6.36,10-7.68-2.69-4.63,7.48-7.9,11.66-11.62,2.5-.42,5.19-1.23,7.69-1.64,5.25-4.16-2.42-4.88,4.25-9,2.06-2.19,4.13-4.38,6.17-6.57,1.48-2.9,4.38-5.23,13-9.33l5.24-4.74c4.93-3.4,9.69-6.95,14.48-10.51.86-1.31,1.56-2.22,2.13-3.26q17.13-14.4,34.2-28.78l7.93-7.36c3.3-3.61,8.15-6.53,9.74-10.44,2.63-3.26,5.52-6.77,8-10.17,3.08-1.57,5.8-4.13,8.24-6.45,2.08-3.31,4.16-6.61,6.11-9.54l14.81-13.08c6.73-5.92,13.45-11.85,20-18-.11-1.25-.35-2.1-.45-3.37,5.81-1.83,13.31-9.18,13.53-14.59,2-2.24,3.89-4.64,5.78-7l17.8-17.7,22.7-23c6.56-5.61,10.11-11.75,17-21.46l5.58-7.24c2.59-2.73,4.94-5.19,7.53-7.93,3.74-4.8,7.47-9.62,11-14.62,3.61-3.86,7.44-8,9.81-13.18,4.18-5.45,8.11-10.62,12.12-16.25l13.35-15c3.13-3.84,8.83-8.92,8.82-11.58,2.31-3.59,4.84-7.49,7.16-11.08,1.06-2.16,2.36-4.61,3.27-6.9-.37-3.5-.37-7.15-.75-10.64a14.08,14.08,0,0,0-.93-3.46c-1.95-2.84-4.27-5.52-6.23-8.36l3.36-4.08c5.14-4.49,10.19-8.6,15.29-13.22a38.07,38.07,0,0,1-.44-5.45c3.5-2,8.35-6.36,9.38-11-2-2.19-4.31-3.63-10,.95.47-2.57,1-5.56,1.51-8.13-3.34-1.37-4.31-7.51-11-2.5-1.78-3.46-3.17-7.08-4.76-10.8,4.62-10.49-3.93-11.69-12.58-8.18,2.39-11.09-5.56-5.52-11.19-5.2l-4.32-3.64-3.2,4.22c-1.34-1.13-2.82-2.4-4.3-3.66-2.69.94-7.38,2.9-11.09,3.84l-1.47-1.28c-3-1.75-9.68,12-15.26,8.86l2.06,6.1c-8.3,3.38-12,1.81-17.09,4.8-.87,3.48-1.62,6.16-.55,9.11-1.82,2.15,1.16,2.54,3.41,3.2A89.14,89.14,0,0,1,736,54.46c-4.53,1.1-5.64,0-9.2,5,3.29,3.68-6.61,12-7.8,18.87-4.55,5.11-15.22,11.67-10.17,16.8-8.54,6.22-16.21,15.9-18.76,23.18-3.51,3.15-6.68,4-9.54,7.3-3.34,4.36-6.44,8.46-9.41,12.71-9.7,9.79-10.72,16.71-18.24,24.11l-9.81,12.46c-2.81,3.94-5.76,7.75-8.72,11.53-4.26,2.89-7.88,6.49-11.12,13.82L613.36,210l-9.91,9.71A30.52,30.52,0,0,0,592,233.26l-5.27,5.07c-3.52,1.5-10.9,8.6-13.09,13.9-5.7,6.28-11.19,12.25-16.79,18.64-5.2.64-13.9,10.14-17.89,16.79l-8.35,8.86c-16.45,10.49-24.36,26.22-39,38.46-4.21,7-16.35,13.52-17.85,19.84-11.78,11.67-28.28,23.26-35.74,34.51-3.14,2.53-6.39,6.7-9.66,7.26-2.25,2.71-4.6,5.26-6.95,7.81-1.15-1.23-2.44-2.6-3.56-3.81-2.68-4-5.46-7.88-8.24-11.76-1.11-.63-1.86-1.17-2.75-1.57-7.59-9.18-15.07-18.42-22.29-27.87l-5.65-6.5c-2.84-2.68-4.82-6.79-8.12-8-2.58-2.12-5.33-4.48-8.05-6.5a24.63,24.63,0,0,0-4.57-7c-2.67-1.68-5.33-3.38-7.66-5-3.15-4.3-6.14-8.38-9.3-12.67l-12.47-17.29c-1.15.11-2,.32-3.11.44-.53-5.1-5.55-11.65-10.36-11.86-1.6-1.77-3.32-3.44-5.07-5.11-3.91-5.19-7.78-10.41-11.76-15.89-5-6.9-9.79-13.59-14.62-20.57-3.15-6-7.6-9.32-14.08-15.93l-4.65-5.31-4.53-7.06c-3-3.6-5.91-7.21-9-10.74-2.09-3.43-4.27-7.08-7.82-9.68-3.07-4.1-6-8-9.07-12.1-2.41-4.41-4.62-8.58-6.8-12.93-1.79-3.09-3.15-8.26-5.3-8.75-1.75-2.39-3.56-5-5.17-7.36-1.12-1.18-2.34-2.6-3.59-3.7-2.94-.51-5.7-1.31-8.62-1.91a16.51,16.51,0,0,0-3.17-.23c-3.3.56-6.72,1.37-10.06,1.85-.38-1.22-.7-2.19-1.08-3.4a47.32,47.32,0,0,1,1-12.1,24,24,0,0,1-3.83-1.24,6.94,6.94,0,0,0,1.68-3,3.53,3.53,0,0,0-.48-3.18c-2.74-.44-5.73-.83-7.81,2.92a23.81,23.81,0,0,1-3-4.27c-1.8.1-3.61-.61-5.43-.79s-3.79.18-5.35,3a44,44,0,0,1-9.23-5.42c.18-2.4,0-4-.54-5.07a3.8,3.8,0,0,0-3.34-1.66c-3.05-.13-7.85,1.71-11.23,5.77-.5-2.91-.93-4.52-1.71-5.26s-1.86-.64-3.1,0c-2.56,1.21-5.32,4.77-7.76,6.93l-5.56-1a67.77,67.77,0,0,0-.67,7.26l-5.62-.63c-.83,1.7-1.91,4.21-2.9,6.93s-1.94,6.11-2.81,8.42l-2,0c-.84.27-1.09,2-1,4.29a74.68,74.68,0,0,0,.87,7.75c.76,5.43,1.44,10.35-1.36,11.86,2.08,1,4.37,1.71,6.44,2.53-1.24,10.08-4.35,12.68-3.92,19.23,2.78,2.83,4.91,5,8.07,5.4,1.17,2.76,2.82.18,4.41-1.57,2.8,2.15,5.09,4,7.86,6.35-.89,4.51-2.35,5.18.79,10.34,4.61-1.53,8.38,10.38,14.31,13.52,3,5.67,5.45,17.12,11.86,13.82,2.84,9.29,9.51,18.38,15.47,22.07,1.9,3.76,1.75,6.84,4,10,3.12,3.81,6.09,7.3,9.24,10.66,6.59,10.3,12.79,12.1,17.89,19.8l9.37,10.25c3.06,2.93,6,6,8.87,9,1.8,4.13,4.44,7.72,10.63,11.14,2.29,3,4.76,6.32,7.23,9.61l7.3,9.53a22.54,22.54,0,0,0,10.75,10.91c1.38,1.73,2.56,3.21,3.92,4.94.86,3.26,6.41,10.15,11.06,12.18,5,5.26,9.91,10.26,15.17,15.33-.05,4.79,7.81,12.63,13.6,16.07,2.41,2.51,5,4.88,7.39,7.38,8.21,14.77,22.27,21.15,32.67,33.66,4.66,2.49,8.85,9.08,13.1,12.56-2.16,2-4.33,4-6.48,6.09a8.81,8.81,0,0,1-.81,2c-2.36,1.76-4.84,5.14-7.3,4.92-18.77,14.68-44.51,34.66-60.23,51.64-14.5,12.45-30.5,20.25-45.18,39.35l-4,3.21c-4,2-7.72,3.69-11.42,5.42l-8.31,6.62c-2.6-2.4-5.46,1.12-8.31,6.61-6.95,6-14.21,12.22-21.3,18L175.55,613c-13.1,10-26.37,19.66-39.68,29.24-7.64,6.26-15.31,12.49-23.11,18.52a11.89,11.89,0,0,1-3-1.2c-2.82,2.32-5.23,4.59-8,7.06l-8.52,6.22c-3.4.07-5.76,1.76-8.1,3.46-.13,2.49-.66,5-1.08,7.72L74.1,691.15c-4.94,3-9.78,6.17-14.74,9.11l-2.67,1.84c-3.37,2.08-7.13,4.18-10.6,6-5.15,3.93-10,7.64-15.29,11.29-5.76,3.5-12.21,7.75-9.53,10.43a72.36,72.36,0,0,1,6.94,2.3c-6.35,5.37-1,10,5,9,4.69-3.43,9.47-6.76,14.14-10.29,7.26-4.1,14.11-6.13,21.54-12.18,1.09-2.42,2.28-4.66,3.67-7.28,5.4-2.34,10.14-1.62,15.33-5,6.78-4.34,13.85-8.94,20.49-13.52,9-2.23,14.45-10.09,21.3-15.66l7.22-1.73,11.48-8.63c.88-.65,1.75-1.3,2.64-2,3-2.77,6.32-5.75,9.42-8.37.87,1.3,1.75,2.58,1.75,9.18l.55.8c-1.85,3.85-6.87,5-6.72,8.5-.6,5.1,8.21-.33,7.46,8.51-13.44,6.49-20.59,17.15-32.72,24.35-1,1.92-2,3.66-2.71,5.35,1.05,1.64,2,3.12,3.06,4.75-2.42,1.05-7.27,3.13-6.71,6.08-2.92,1.64-5.14,3-7.78,4.41-3.26-.28-4.41-2.82-9.6-1.28-11.65,5.16-3.6,7.56-6,13.54-2-2.42-10.31,4.6-12,8.34l-2.77,1.91-10.49,3.59-7.5,5c-9.77,9.41-6.38-5.23-19.21,10.31-.12,2.14-.16,4.46-.21,6.78l-4.89,3-11.44,9.92c-8.53,6-21.71,9.11-27.54,17.81A275.94,275.94,0,0,0,37.17,794.5l6.48-3.79c23.21-12.07,45-24.94,66.81-38.33,2.77,4.48,8.46-2.13,12.1-7.61,10.41-7.42,20.42-14.7,30.65-22.27,3.95,1.93,9.6-1,9.9,2.13,3.41-2.31,5.48-5.3,7.63-8.13,5.44,3.47,10.93-7.2,16.4-11.11l10.37-6.67a34.8,34.8,0,0,0,4-.81c3.7-1.86,7.3-3.87,10.88-5.9,3.9-4.23,7.49-8.24,11.48-12.32,12.15-.09,15.34-15.17,25.6-22.53,2.9-1.07,2.66,1.85,4.15,2.67C264,652,269.27,641.4,280,635.3c5.93-9,16.68-15.67,27.24-23.27-.24-2.28-.47-4.4-.71-6.69l5.47-4.47c2.76,1.27,5.41-.15,5.63,1.43l9.78-8c5-2.6,13-4.91,14.93-9.8.17-5.43,11-8.87,10.68-14.93,1.15-1,2-1.66,2.86-2.38,8.86-.53,17-14.47,25.22-14,2.75-1.27,14.39-8,8.33-9.31,9.46-10.29,17.25-15.38,28-25.13a3,3,0,0,1,.39-1.86c16.32,14.38,30.9,30.41,49.57,44.6a7.54,7.54,0,0,1,1.84.34c1.75,1.81,5,3.4,5,5.69,14.61,14.23,35.36,33.17,52.72,43,13.07,9.88,22.48,22.37,42.1,29.74l3.56,2.61,6.95,8.59,7.52,5.29c-1.61,3.15,2.13,4.57,7.57,5.25l20.67,12.65,7.76,5c12,7.87,24.06,15.69,36.39,23.19l23.34,11.75a12,12,0,0,1,0,3.1c3,1.32,5.74,2.35,8.82,3.48l8.39,4.22c1.4,2.86,3.75,4,6.09,5.14,2.09-1.16,4.4-2,6.75-3l10,4.62c4.55,2.48,9.23,4.76,13.88,7.13l2.7,1.15c3.24,1.54,6.71,3.38,9.91,5.06l16.7,5.25c5.81,2.3,12.8,4.4,13.17.62a55.52,55.52,0,0,1-2.29-6.71c7.5,1.27,7.69-5.84,3.73-9.63-5-1.27-9.83-2.79-14.74-4.22-6.62-3.09-11.31-7.26-19.2-9.69-2.32.5-4.57.82-7.2,1.17-4.14-3.09-5.58-7.28-10.33-9.69l-18.52-9.89c-5-6.4-13.19-7.09-20-10.31L687,687l-10.6-5.9L674,679.68c-3.18-1.34-6.61-2.93-9.67-4.47.84-1.31,1.69-2.61,7.17-5.5.21-.32.33-.49.53-.81,3.69-.1,6,3.69,8.9,2,4.33-1.78-2.56-6.82,4.89-10.19,9,8.46,19.71,9.38,29.2,15.77,1.83-.17,3.54-.17,5.09-.48.92-1.7,1.77-3.24,2.71-4.94,1.57,1.44,4.77,4.3,6.86,2.3l6,3.94c.92,2.79-.64,5.12,2.4,8.43,8.14,6.53,7-1.3,12.34-2.75-1.11,2.95,7.25,5.49,10.6,4.57l2.45,1c2.34,2,4.4,3.91,6.78,5.87l6.65,2.55c10.65,1.24-.78,8.32,15.54,7.41,1.46-1.35,3-2.9,4.49-4.44l4.18,1.35c3.89.44,7.56.49,11.47.65,7.48,1.18,16.19,6.76,22.48,2-7.26-2.66-14.43-5.54-21.79-8.7L808,693.66" transform="translate(-5 -9.56)"/></g></svg>