<svg fill="#000000" xmlns="http://www.w3.org/2000/svg"  viewBox="0 0 64 64" width="128px" height="128px"><path d="M 13 7 L 13 59 L 30.136719 49.980469 C 31.302719 49.366469 32.697281 49.366469 33.863281 49.980469 L 51 59 L 51 43.367188 L 47.28125 41.884766 L 39.169922 45.117188 L 36.164062 42.935547 L 36.480469 33.876953 L 31 27.548828 L 32.160156 23.974609 L 40.527344 21.556641 L 45.408203 14 L 49.152344 14 L 51 16.859375 L 51 7 L 13 7 z M 46.601562 16 L 42.28125 24 L 33.701172 25.707031 C 33.507172 26.302031 33.47425 26.405 33.28125 27 L 39.28125 33 L 38.28125 42 C 38.78725 42.367 38.874859 42.430828 39.380859 42.798828 L 47.28125 39 L 55.181641 42.798828 C 55.687641 42.431828 55.77525 42.368 56.28125 42 L 55.28125 33 L 61.28125 27 C 61.08725 26.405 61.054328 26.302031 60.861328 25.707031 L 52.28125 24 L 47.960938 16 L 46.601562 16 z"/></svg>