<svg xmlns="http://www.w3.org/2000/svg" xmlns:xlink="http://www.w3.org/1999/xlink" width="60" zoomAndPan="magnify" viewBox="0 0 45 44.999999" height="60" preserveAspectRatio="xMidYMid meet" version="1.0"><path fill="#000000" d="M 24.605469 9.003906 C 25.167969 9.511719 25.730469 10.027344 26.292969 10.535156 C 27.640625 11.753906 28.984375 12.976562 30.324219 14.199219 C 31.949219 15.671875 33.578125 17.148438 35.203125 18.628906 C 36.613281 19.914062 38.023438 21.191406 39.433594 22.472656 C 40.117188 23.09375 40.789062 23.734375 41.484375 24.335938 L 41.511719 24.363281 L 41.511719 21.976562 L 39.824219 23.464844 C 38.476562 24.652344 37.125 25.839844 35.78125 27.03125 C 34.15625 28.460938 32.53125 29.898438 30.902344 31.328125 C 29.496094 32.566406 28.089844 33.804688 26.683594 35.046875 C 26 35.648438 25.300781 36.238281 24.628906 36.859375 L 24.601562 36.886719 C 25.558594 37.28125 26.523438 37.683594 27.480469 38.078125 L 27.480469 30.039062 C 27.480469 29.128906 26.707031 28.34375 25.792969 28.351562 C 24.441406 28.355469 23.085938 28.359375 21.726562 28.359375 C 19.964844 28.363281 18.210938 28.367188 16.453125 28.371094 C 15.574219 28.378906 14.695312 28.339844 13.824219 28.222656 C 13.972656 28.242188 14.121094 28.265625 14.273438 28.28125 C 13.144531 28.128906 12.039062 27.847656 10.984375 27.40625 C 11.121094 27.464844 11.253906 27.515625 11.390625 27.574219 C 10.558594 27.21875 9.769531 26.765625 9.054688 26.21875 C 9.167969 26.308594 9.285156 26.390625 9.394531 26.484375 C 8.671875 25.921875 8.027344 25.265625 7.46875 24.542969 C 7.558594 24.65625 7.644531 24.773438 7.734375 24.886719 C 7.050781 23.992188 6.503906 23.007812 6.066406 21.972656 C 6.125 22.109375 6.179688 22.242188 6.238281 22.378906 C 5.707031 21.113281 5.339844 19.789062 5.097656 18.441406 C 5.027344 18.058594 4.96875 17.671875 4.914062 17.285156 C 4.933594 17.433594 4.953125 17.582031 4.972656 17.734375 C 4.792969 16.371094 4.714844 14.992188 4.714844 13.621094 C 4.714844 12.414062 4.777344 11.214844 4.890625 10.015625 C 4.941406 9.46875 5.003906 8.921875 5.082031 8.375 C 5.0625 8.523438 5.039062 8.671875 5.023438 8.824219 C 5.117188 8.128906 5.222656 7.425781 5.367188 6.730469 L 5.394531 6.609375 C 4.289062 6.460938 3.1875 6.3125 2.078125 6.160156 C 2.148438 7.144531 2.375 8.140625 2.6875 9.078125 C 3.371094 11.125 4.492188 13.046875 6.078125 14.527344 C 7.054688 15.433594 8.179688 16.203125 9.40625 16.734375 C 10.164062 17.0625 10.933594 17.351562 11.746094 17.550781 C 12.648438 17.769531 13.582031 17.902344 14.511719 17.976562 C 15.285156 18.039062 16.054688 18.035156 16.828125 18.03125 C 17.863281 18.03125 18.90625 18.027344 19.941406 18.027344 C 21.855469 18.023438 23.769531 18.019531 25.6875 18.019531 L 25.789062 18.019531 C 26.703125 18.019531 27.476562 17.242188 27.476562 16.332031 C 27.476562 15.367188 27.480469 14.40625 27.480469 13.441406 C 27.480469 11.914062 27.484375 10.390625 27.484375 8.863281 L 27.484375 7.808594 C 27.484375 6.925781 26.707031 6.078125 25.796875 6.121094 C 24.886719 6.160156 24.109375 6.863281 24.109375 7.808594 C 24.109375 8.769531 24.105469 9.734375 24.105469 10.695312 C 24.105469 12.222656 24.101562 13.746094 24.101562 15.273438 L 24.101562 16.332031 L 25.789062 14.644531 C 24.480469 14.648438 23.171875 14.648438 21.859375 14.652344 C 20.054688 14.65625 18.253906 14.65625 16.449219 14.660156 C 15.53125 14.660156 14.613281 14.636719 13.699219 14.515625 C 13.847656 14.535156 13.996094 14.558594 14.148438 14.574219 C 12.996094 14.421875 11.867188 14.140625 10.796875 13.683594 C 10.929688 13.742188 11.066406 13.796875 11.199219 13.855469 C 10.367188 13.5 9.582031 13.050781 8.863281 12.5 C 8.976562 12.589844 9.09375 12.675781 9.207031 12.765625 C 8.503906 12.222656 7.878906 11.59375 7.335938 10.894531 C 7.425781 11.007812 7.511719 11.125 7.601562 11.238281 C 6.996094 10.449219 6.503906 9.585938 6.117188 8.675781 C 6.175781 8.8125 6.226562 8.945312 6.285156 9.082031 C 5.929688 8.238281 5.664062 7.363281 5.503906 6.464844 C 5.476562 6.316406 5.453125 6.167969 5.429688 6.019531 C 5.449219 6.167969 5.472656 6.316406 5.488281 6.472656 C 5.476562 6.367188 5.464844 6.269531 5.453125 6.164062 C 5.394531 5.320312 4.855469 4.625 3.992188 4.507812 C 3.203125 4.402344 2.320312 4.894531 2.140625 5.71875 C 2.0625 6.089844 1.996094 6.457031 1.933594 6.832031 C 1.753906 7.933594 1.609375 9.046875 1.511719 10.15625 C 1.390625 11.503906 1.332031 12.851562 1.355469 14.207031 C 1.382812 15.886719 1.535156 17.5625 1.828125 19.21875 C 2.125 20.910156 2.628906 22.539062 3.34375 24.101562 C 4.039062 25.621094 5.015625 27.054688 6.238281 28.207031 C 7.65625 29.546875 9.375 30.511719 11.238281 31.085938 C 12.910156 31.597656 14.6875 31.765625 16.433594 31.761719 L 21.023438 31.746094 L 25.546875 31.734375 L 25.808594 31.734375 L 24.121094 30.046875 L 24.121094 38.089844 C 24.121094 38.761719 24.542969 39.371094 25.160156 39.632812 C 25.808594 39.90625 26.484375 39.738281 27.003906 39.28125 L 28.691406 37.796875 C 30.042969 36.609375 31.390625 35.417969 32.738281 34.226562 C 34.363281 32.796875 35.988281 31.359375 37.617188 29.929688 C 39.019531 28.691406 40.429688 27.453125 41.832031 26.210938 C 42.515625 25.609375 43.21875 25.019531 43.886719 24.398438 L 43.914062 24.371094 C 44.578125 23.785156 44.558594 22.570312 43.914062 21.988281 C 43.351562 21.476562 42.789062 20.964844 42.226562 20.457031 C 40.882812 19.238281 39.535156 18.011719 38.195312 16.792969 C 36.570312 15.316406 34.941406 13.84375 33.316406 12.363281 C 31.910156 11.078125 30.496094 9.800781 29.089844 8.519531 C 28.402344 7.898438 27.722656 7.265625 27.035156 6.65625 L 27.007812 6.628906 C 26.679688 6.328125 26.269531 6.132812 25.816406 6.132812 C 25.402344 6.132812 24.90625 6.316406 24.625 6.628906 C 24.011719 7.261719 23.910156 8.371094 24.605469 9.003906 Z M 24.605469 9.003906 " fill-opacity="1" fill-rule="nonzero"/></svg>