<svg id="Camada_1" data-name="Camada 1" xmlns="http://www.w3.org/2000/svg" xmlns:xlink="http://www.w3.org/1999/xlink" viewBox="0 0 584.1 604.51"><defs><style>.cls-1,.cls-2{fill:none;}.cls-2{stroke:#000;stroke-width:4px;}.cls-3{clip-path:url(#clip-path);}.cls-4{fill:#99b83c;}</style><clipPath id="clip-path" transform="translate(-14 -8.76)"><rect class="cls-1" x="14" y="8.06" width="584" height="605.33"/></clipPath></defs><path class="cls-2" d="M235.68,575.6l-3-56.93" transform="translate(-14 -8.76)"/><g class="cls-3"><path class="cls-4" d="M575.64,8.76l-26.22,18c-137.15,93.85-277.59,288.14-347.65,446.1-10.83-15.15-14.1-20.17-24.58-37C134.35,377.91,80,328.24,54.27,309.89L14,326.73l1.28,2.4c27.8,30.43,76.58,98,150.11,246.85a172.37,172.37,0,0,0,14.79,18.63c14.39,15.42,29.14,18.66,39,18.66h0c28.06,0,44.62-22.17,56-48.12C348.83,291.74,522.85,103.52,598.1,39.06Z" transform="translate(-14 -8.76)"/></g></svg>