<?xml version="1.0" encoding="UTF-8" standalone="no"?> <svg width="64" height="64" viewBox="0 0 64 64" fill="none" xmlns="http://www.w3.org/2000/svg">
<path d="M59.91 25.68C58.8873 25.6856 57.8861 25.3861 57.0346 24.8196C56.1831 24.2531 55.52 23.4455 55.13 22.5V22.4C54.7292 21.4368 54.6273 20.3752 54.8378 19.3533C55.0482 18.3314 55.5612 17.3965 56.31 16.67C56.4503 16.5314 56.5617 16.3664 56.6377 16.1844C56.7137 16.0024 56.7529 15.8072 56.7529 15.61C56.7529 15.4128 56.7137 15.2176 56.6377 15.0356C56.5617 14.8536 56.4503 14.6886 56.31 14.55L49.45 7.73C49.1543 7.45593 48.763 7.30872 48.36 7.32C47.9498 7.33111 47.5596 7.49937 47.27 7.79C46.5313 8.53729 45.5857 9.0462 44.5551 9.25115C43.5245 9.45609 42.4562 9.34768 41.4878 8.93987C40.5194 8.53206 39.6953 7.84356 39.1218 6.96311C38.5483 6.08265 38.2516 5.05061 38.27 4C38.27 3.60218 38.112 3.22064 37.8307 2.93934C37.5494 2.65804 37.1678 2.5 36.77 2.5H27.18C26.7732 2.52061 26.3902 2.6975 26.1107 2.99375C25.8312 3.29 25.6769 3.68273 25.68 4.09C25.6856 5.11271 25.3861 6.11385 24.8196 6.96536C24.2531 7.81687 23.4455 8.48003 22.5 8.87H22.4C21.4372 9.27362 20.375 9.37691 19.3525 9.16635C18.33 8.95578 17.395 8.44118 16.67 7.69C16.5314 7.54971 16.3664 7.43833 16.1844 7.36231C16.0024 7.28628 15.8072 7.24714 15.61 7.24714C15.4128 7.24714 15.2176 7.28628 15.0356 7.36231C14.8536 7.43833 14.6886 7.54971 14.55 7.69L7.73 14.55C7.45593 14.8457 7.30872 15.237 7.32 15.64C7.33111 16.0502 7.49937 16.4404 7.79 16.73C8.53729 17.4687 9.0462 18.4143 9.25115 19.4449C9.45609 20.4755 9.34768 21.5438 8.93987 22.5122C8.53206 23.4806 7.84356 24.3047 6.96311 24.8782C6.08265 25.4517 5.05061 25.7484 4 25.73C3.60218 25.73 3.22064 25.888 2.93934 26.1693C2.65804 26.4506 2.5 26.8322 2.5 27.23V36.87C2.52061 37.2768 2.6975 37.6598 2.99375 37.9393C3.29 38.2188 3.68273 38.3731 4.09 38.37C5.11496 38.3659 6.11793 38.6671 6.97103 39.2352C7.82412 39.8033 8.48869 40.6127 8.88 41.56V41.56V41.65C9.28084 42.6132 9.38266 43.6748 9.17222 44.6967C8.96178 45.7186 8.44882 46.6535 7.7 47.38C7.55971 47.5186 7.44833 47.6836 7.3723 47.8656C7.29628 48.0476 7.25714 48.2428 7.25714 48.44C7.25714 48.6372 7.29628 48.8324 7.3723 49.0144C7.44833 49.1964 7.55971 49.3614 7.7 49.5L14.52 56.32C14.8157 56.5941 15.207 56.7413 15.61 56.73V56.73C16.0202 56.7189 16.4104 56.5506 16.7 56.26C17.4387 55.5127 18.3843 55.0038 19.4149 54.7989C20.4455 54.5939 21.5138 54.7023 22.4822 55.1101C23.4506 55.5179 24.2747 56.2064 24.8482 57.0869C25.4217 57.9673 25.7184 58.9994 25.7 60.05C25.7 60.4478 25.858 60.8294 26.1393 61.1107C26.4206 61.392 26.8022 61.55 27.2 61.55H36.84C37.2468 61.5294 37.6298 61.3525 37.9093 61.0563C38.1888 60.76 38.3431 60.3673 38.34 59.96C38.3344 58.9373 38.6339 57.9361 39.2004 57.0846C39.7669 56.2331 40.5745 55.57 41.52 55.18H41.62C42.5832 54.7792 43.6448 54.6773 44.6667 54.8878C45.6886 55.0982 46.6235 55.6112 47.35 56.36C47.4886 56.5003 47.6536 56.6117 47.8356 56.6877C48.0176 56.7637 48.2128 56.8029 48.41 56.8029C48.6072 56.8029 48.8024 56.7637 48.9844 56.6877C49.1664 56.6117 49.3314 56.5003 49.47 56.36L56.29 49.54C56.5641 49.2443 56.7113 48.853 56.7 48.45C56.6889 48.0398 56.5206 47.6496 56.23 47.36C55.4827 46.6213 54.9738 45.6757 54.7689 44.6451C54.5639 43.6145 54.6723 42.5462 55.0801 41.5778C55.4879 40.6094 56.1764 39.7853 57.0569 39.2118C57.9373 38.6383 58.9694 38.3416 60.02 38.36C60.4178 38.36 60.7994 38.202 61.0807 37.9207C61.362 37.6394 61.52 37.2578 61.52 36.86V27.18C61.4993 26.7697 61.3196 26.3837 61.0191 26.1037C60.7185 25.8236 60.3207 25.6717 59.91 25.68V25.68ZM32 49.06C28.6259 49.06 25.3275 48.0594 22.522 46.1849C19.7165 44.3103 17.5298 41.6459 16.2386 38.5286C14.9474 35.4113 14.6095 31.9811 15.2678 28.6718C15.9261 25.3624 17.5509 22.3226 19.9368 19.9368C22.3226 17.5509 25.3624 15.9261 28.6718 15.2678C31.9811 14.6095 35.4113 14.9474 38.5286 16.2386C41.6459 17.5298 44.3103 19.7165 46.1849 22.522C48.0594 25.3275 49.06 28.6259 49.06 32C49.0521 36.5222 47.2521 40.8568 44.0545 44.0545C40.8568 47.2521 36.5222 49.0521 32 49.06Z" fill="black"/>
</svg>
